<svg xmlns="http://www.w3.org/2000/svg" xmlns:xlink="http://www.w3.org/1999/xlink" xmlns:inkscape="http://www.inkscape.org/namespaces/inkscape" version="1.1" width="350.3088" height="63.8908" viewBox="0 0 350.3088 63.8908">
<g inkscape:groupmode="layer" inkscape:label="&#x0421;&#x043B;&#x043E;&#x0439; 1">
<path transform="matrix(1,0,0,-1,1,62.8908)" d="M268.9328 .8084C267.4701 3.3911 267.4701 5.8017 267.4701 7.9554V21.4733C267.4701 23.1111 267.3836 25.0044 266.0054 26.2089 264.9719 27.0714 263.5098 27.1559 262.4766 27.1559H258.6019V36.1976H262.9922C264.1963 36.1976 265.574 36.2846 266.6075 37.0582 267.9854 38.094 268.0727 39.9005 268.0727 41.0202V47.2201C268.0727 49.8022 267.6416 50.7489 267.2994 51.2666 266.4366 52.5583 265.1448 52.6445 264.1119 52.6445H258.6019V61.0824H264.9719C270.3098 61.0824 273.6697 59.36 275.305 57.3803 277.1144 55.2274 277.8877 51.5245 277.8877 48.7689V41.8802C277.8877 39.729 277.5438 36.8867 275.305 34.5623 274.2701 33.5285 272.7213 32.4958 270.5683 32.2381V31.9776C271.086 31.8061 272.8083 31.2885 274.2701 29.9976 277.0279 27.5865 277.2856 24.7445 277.2856 22.2486V9.3331C277.2856 3.9087 277.63 2.2728 280.0414 1.2396V.8084Z" fill="#333333"/>
<path transform="matrix(1,0,0,-1,1,62.8908)" d="M250.2717 9.4578V5.8263H248.8079C248.3008 5.8263 247.9561 5.7841 247.7735 5.6996 247.5921 5.6154 247.5009 5.4578 247.5009 5.2311 247.5009 5.0017 247.5782 4.8487 247.7364 4.7704 247.8983 4.693 248.2517 4.6553 248.8048 4.6553H254.7765C255.2275 4.6553 255.5671 4.7132 255.7899 4.8285 256.0161 4.9445 256.1301 5.1151 256.1301 5.3444 256.1301 5.6083 256.0119 5.7866 255.7786 5.8819 255.5436 5.9757 255.1028 6.0222 254.4469 6.0222H252.9476V9.4578C253.9562 9.451 254.7142 9.4156 255.2187 9.3464 255.7225 9.282 256.2403 9.0666 256.7716 8.7063 257.3005 8.3466 257.7036 7.8775 257.9715 7.2978 258.2405 6.7175 258.374 6.0021 258.374 5.1466 258.374 4.0601 258.19 3.1932 257.8164 2.5551 257.4448 1.9196 256.9226 1.4683 256.2517 1.2064 255.5807 .942 254.6297 .8084 253.3918 .8084H249.7963C248.7203 .8084 247.9122 .9153 247.3634 1.1333 246.816 1.3487 246.329 1.8105 245.8981 2.5197 245.4698 3.2267 245.2538 4.0864 245.2538 5.1001 245.2538 6.1067 245.4698 6.9639 245.8964 7.6822 246.3233 8.3934 246.8582 8.8688 247.5096 9.102 248.1602 9.3402 249.0812 9.4578 250.2717 9.4578ZM252.03 19.3113V14.3133H254.7714C255.3452 14.3133 255.7162 14.3555 255.8812 14.4354 256.0501 14.5199 256.1301 14.6801 256.1301 14.9173 256.1301 15.2135 256.0187 15.4131 255.8013 15.5109 255.5807 15.611 255.1544 15.66 254.5226 15.66H252.8501V19.3113H253.7875C254.5716 19.3113 255.174 19.262 255.594 19.1645 256.0119 19.0641 256.4609 18.8331 256.9408 18.4708 257.4184 18.1111 257.7762 17.6488 258.0163 17.0932 258.2535 16.5356 258.374 15.8397 258.374 15.0001 258.374 14.1843 258.2586 13.4668 258.0205 12.8418 257.7875 12.2202 257.4638 11.7357 257.0536 11.3868 256.6434 11.0378 256.1919 10.802 255.6961 10.6685 255.2049 10.5355 254.4891 10.4664 253.5474 10.4664H249.8536C248.745 10.4664 247.8745 10.6157 247.2344 10.9154 246.5963 11.2153 246.1037 11.7023 245.7677 12.382 245.4228 13.0666 245.2538 13.8484 245.2538 14.7336 245.2538 15.8131 245.4605 16.7046 245.8718 17.4064 246.2788 18.1111 246.8237 18.6043 247.5009 18.8884 248.1735 19.1707 249.1248 19.3113 250.3545 19.3113ZM249.9783 15.4641H249.0537C248.3991 15.4641 247.9782 15.429 247.7874 15.3578 247.5941 15.2867 247.5009 15.1398 247.5009 14.9173 247.5009 14.6441 247.5808 14.4751 247.7426 14.4111 247.9076 14.3442 248.3436 14.3133 249.0537 14.3133H249.9783ZM245.49 24.3709 246.6938 24.3133C246.2139 24.6107 245.8536 24.9667 245.6161 25.38 245.376 25.7913 245.2538 26.2624 245.2538 26.7891 245.2538 27.8178 245.7312 28.6248 246.6938 29.2181 246.2139 29.5381 245.8536 29.9021 245.6161 30.3092 245.376 30.7154 245.2538 31.1664 245.2538 31.6647 245.2538 32.3155 245.4137 32.8578 245.7312 33.2841 246.0501 33.7133 246.4387 33.9866 246.9005 34.107 247.3591 34.2266 248.1075 34.289 249.1449 34.289H258.141V30.5597H249.8913C248.8116 30.5597 248.1452 30.5246 247.8869 30.4489 247.6318 30.3778 247.5009 30.2088 247.5009 29.9381 247.5009 29.6646 247.6273 29.4888 247.8813 29.4109 248.1338 29.3309 248.8048 29.2912 249.8913 29.2912H258.141V25.562H250.1036C248.8626 25.562 248.1188 25.5336 247.8719 25.4713 247.625 25.4132 247.5009 25.2445 247.5009 24.9687 247.5009 24.7978 247.5658 24.6535 247.6962 24.5307 247.8251 24.4111 247.9853 24.3442 248.1735 24.3312 248.3612 24.3179 248.7589 24.3133 249.3677 24.3133H258.141V20.5824H245.49ZM252.03 44.3446V39.3466H254.7714C255.3452 39.3466 255.7162 39.3888 255.8812 39.4688 256.0501 39.5532 256.1301 39.7134 256.1301 39.9515 256.1301 40.2469 256.0187 40.4464 255.8013 40.5448 255.5807 40.6443 255.1544 40.6936 254.5226 40.6936H252.8501V44.3446H253.7875C254.5716 44.3446 255.174 44.2962 255.594 44.1978 256.0119 44.0983 256.4609 43.867 256.9408 43.5047 257.4184 43.1444 257.7762 42.6821 258.0163 42.1265 258.2535 41.5689 258.374 40.8736 258.374 40.0334 258.374 39.2202 258.2586 38.5002 258.0205 37.8757 257.7875 37.2535 257.4638 36.769 257.0536 36.4201 256.6434 36.0737 256.1919 35.8356 255.6961 35.7026 255.2049 35.5691 254.4891 35.5003 253.5474 35.5003H249.8536C248.745 35.5003 247.8745 35.6491 247.2344 35.949 246.5963 36.2486 246.1037 36.7356 245.7677 37.4179 245.4228 38.1002 245.2538 38.88 245.2538 39.767 245.2538 40.8467 245.4605 41.7379 245.8718 42.4403 246.2788 43.1444 246.8237 43.6377 247.5009 43.9226 248.1735 44.2046 249.1248 44.3446 250.3545 44.3446ZM249.9783 40.4983H249.0537C248.3991 40.4983 247.9782 40.4623 247.7874 40.3911 247.5941 40.32 247.5009 40.1737 247.5009 39.9515 247.5009 39.678 247.5808 39.5093 247.7426 39.4444 247.9076 39.378 248.3436 39.3466 249.0537 39.3466H249.9783ZM245.49 49.5023 246.6635 49.4444C246.1944 49.7248 245.8434 50.0649 245.6048 50.4694 245.3717 50.8737 245.2538 51.338 245.2538 51.8672 245.2538 52.5291 245.41 53.0691 245.7224 53.4892 246.0317 53.9093 246.4274 54.1803 246.9005 54.2979 247.3716 54.4184 248.1647 54.4825 249.2697 54.4825H258.141V50.6356H249.3785C248.51 50.6356 247.9765 50.6066 247.7874 50.5468 247.5941 50.4913 247.5009 50.334 247.5009 50.0692 247.5009 49.7914 247.6117 49.6202 247.8277 49.549 248.0502 49.4804 248.6364 49.4444 249.5877 49.4444H258.141V45.5981H245.49ZM243.8101 59.8516H245.8012V60.9248H247.8138V59.8516H254.5761C255.407 59.8516 255.8744 59.8961 255.9671 59.9851 256.0609 60.0712 256.11 60.4361 256.11 61.0804H258.141V59.5227C258.141 58.6426 258.1038 58.0158 258.0301 57.638 257.9587 57.2649 257.79 56.931 257.5278 56.6444 257.2628 56.3579 256.9635 56.1801 256.6208 56.109 256.2826 56.0404 255.4858 56.0044 254.2297 56.0044H247.8138V55.1849H245.8012V56.0044H243.8101Z" fill="#ed1c24"/>
<path transform="matrix(1,0,0,-1,1,62.8908)" d="M34.2119 .8595H24.0687L22.3495 11.9483H11.8624L10.1432 .8595H0L11.0889 61.0313H23.1231ZM12.9798 20.3723H21.2321L17.1918 44.3551H17.0201ZM47.3638 .8595H37.5644V61.0313H47.3638V35.5014H47.6218L57.765 61.0313H67.7361L56.0458 32.5786 69.2836 .8595H59.3121L47.7077 29.9137H47.3638ZM92.6646 29.484H82.5214V.8595H72.722V61.0313H82.5214V37.908H92.6646V61.0313H102.4639V.8595H92.6646ZM140.0284 .8595H129.8852L128.166 11.9483H117.6789L115.9597 .8595H105.8165L116.9053 61.0313H128.9395ZM118.7963 20.3723H127.0485L123.0083 44.3551H122.8365ZM173.3808 .8595H162.8938L152.6644 36.3609 152.3205 36.275 152.7506 29.484V.8595H142.9509V61.0313H153.7821L163.8391 27.0771H164.0971L163.5814 33.4383V61.0313H173.3808ZM198.309 14.2693V25.8738H192.8075V34.2978H208.1083V.8595H200.1141V6.6189H199.8564C199.226 4.6704 198.3376 3.1518 197.1916 2.0628 195.7589 .6877 193.61 0 190.7444 0 186.9049 0 183.9538 1.1747 181.8907 3.5243 179.7704 5.9885 178.7102 9.3121 178.7102 13.4955V47.7077C178.7102 52.8077 180.2574 56.5328 183.352 58.8824 185.9309 60.8879 189.2259 61.8908 193.2375 61.8908 198.2803 61.8908 202.034 60.6875 204.4981 58.2806 206.905 55.9882 208.1083 52.636 208.1083 48.2233V41.7764H198.309V47.6215C198.309 49.7993 197.9079 51.3179 197.1057 52.1773 196.2459 53.0371 195.0426 53.4668 193.4952 53.4668 191.7187 53.4668 190.4295 52.9798 189.627 52.0055 188.8821 51.1458 188.5096 49.7132 188.5096 47.7077V14.6991C188.5096 12.6933 188.7962 11.232 189.3694 10.315 190.2288 8.9969 191.6901 8.3378 193.7531 8.3378 195.3006 8.3378 196.4752 8.911 197.2774 10.057 197.9651 10.974 198.309 12.378 198.309 14.2693ZM245.4148 .8595H235.2716L233.5524 11.9483H223.0654L221.3461 .8595H211.2029L222.2918 61.0313H234.326ZM224.1828 20.3723H232.435L228.3948 44.3551H228.223ZM314.9563 .8595H304.8131L303.0939 11.9483H292.6069L290.8877 .8595H280.7444L291.8333 61.0313H303.8675ZM293.7243 20.3723H301.9765L297.9363 44.3551H297.7645ZM348.3088 .8595H337.8217L327.5923 36.3609 327.2485 36.275 327.6785 29.484V.8595H317.8789V61.0313H328.71L338.7671 27.0771H339.025L338.5094 33.4383V61.0313H348.3088Z" fill="#333333"/>
</g>
</svg>
