<svg width="127" height="55" viewBox="0 0 127 55" fill="none" xmlns="http://www.w3.org/2000/svg">
<path fill-rule="evenodd" clip-rule="evenodd" d="M50.3139 27.5C50.3139 21.8042 48.141 16.1085 43.7953 11.7628C35.1037 3.07119 21.0119 3.07119 12.3203 11.7628C3.62878 20.4543 3.62878 34.5461 12.3203 43.2377C16.6661 47.5835 22.3619 49.7564 28.0578 49.7564V55C12.604 55 0 42.6465 0 27.5C0 12.3535 12.604 0 28.0578 0C43.5115 0 56.1155 12.3535 56.1155 27.5H50.3139Z" fill="#333333"/>
<path fill-rule="evenodd" clip-rule="evenodd" d="M45.9415 21.8173C45.3848 19.901 44.5377 18.1741 43.3791 16.625C41.4848 14.0626 39.1896 12.0673 36.4925 10.6529C33.8605 9.27226 31.0266 8.57034 28.0021 8.53667C27.9274 8.53667 27.8537 8.53561 27.779 8.53561C25.3165 8.53561 22.9435 9.05968 20.6367 10.1068C18.33 11.1433 16.2579 12.6366 14.43 14.575C12.7588 16.3356 11.4886 18.3193 10.6299 20.5366C9.77227 22.7434 9.33765 25.0943 9.33765 27.601C9.33765 30.1077 9.80594 32.4145 10.7415 34.7317C11.6781 37.049 12.9925 39.0885 14.6857 40.8491C16.4799 42.6991 18.4962 44.1029 20.7472 45.05C22.9603 45.9814 25.3786 46.4497 28.0011 46.4644H28.1347C32.1242 46.4644 35.6338 45.3836 38.6645 43.2221C41.7069 41.049 43.9799 38.0067 45.5059 34.0961H36.4914C35.6222 35.5115 34.4414 36.6028 32.9482 37.3942C31.4791 38.1614 29.8258 38.5518 28.0011 38.5644H27.9116C25.104 38.5644 22.8077 37.8183 21.0366 36.325C19.2655 34.8433 18.2289 32.7933 17.9501 30.2077H46.7097C46.7097 30.0067 46.7213 29.7173 46.7434 29.3048C46.7655 28.9038 46.7771 28.6029 46.7771 28.4134C46.7771 25.9288 46.4982 23.7336 45.9415 21.8173ZM28.0011 23.5779H18.2405C18.853 21.3827 20.0348 19.6105 21.8059 18.2625C23.5665 16.9144 25.5501 16.2346 27.778 16.2346C27.8527 16.2346 27.9274 16.2346 28.0011 16.2367C30.4646 16.2714 32.5188 16.8955 34.1521 18.1067C35.8453 19.3664 37.0492 21.1817 37.7627 23.5779H28.0021H28.0011Z" fill="#333333"/>
<path fill-rule="evenodd" clip-rule="evenodd" d="M51.2095 28.5682H56.0692V42.3539H51.2095V28.5682ZM59.7556 28.5682H71.8113V31.3222L64.0818 39.3916H72.0934V42.3539H59.0137V39.4936L66.6559 31.5105H59.7546V28.5671L59.7556 28.5682ZM74.4506 35.4695C74.4506 33.2195 75.0799 31.4663 76.3312 30.2151C77.5866 28.9596 79.3325 28.3345 81.5698 28.3345C83.8071 28.3345 85.6329 28.9512 86.8757 30.1835C88.1143 31.4127 88.7373 33.1396 88.7373 35.3579C88.7373 36.9691 88.4648 38.2919 87.9218 39.3221C87.3798 40.3524 86.5958 41.1553 85.5719 41.7299C84.5448 42.3045 83.2704 42.5897 81.7392 42.5897C80.208 42.5897 78.8989 42.3424 77.8781 41.8478C76.8605 41.35 76.0355 40.567 75.3998 39.4947C74.7674 38.4224 74.4496 37.0806 74.4496 35.4695H74.4506ZM78.7137 35.4884C78.7137 36.8817 78.9705 37.8793 79.4872 38.4897C80.0039 39.0959 80.71 39.401 81.5992 39.401C82.4885 39.401 83.223 39.1022 83.7239 38.5086C84.2248 37.912 84.4785 36.8428 84.4785 35.3021C84.4785 34.0025 84.2154 33.0554 83.6924 32.4555C83.1693 31.8589 82.4601 31.56 81.5613 31.56C80.6626 31.56 80.0144 31.862 79.4945 32.4713C78.9747 33.0775 78.7147 34.0856 78.7147 35.4884H78.7137ZM92.0059 28.5682H96.2679V38.958H102.916V42.3539H92.0059V28.5682ZM105.999 28.5682H110.268V42.3539H105.999V28.5682ZM113.335 28.5682H126.283V31.9736H121.937V42.3539H117.677V31.9736H113.334V28.5682H113.335Z" fill="#333333"/>
<path fill-rule="evenodd" clip-rule="evenodd" d="M69.6277 24.5408L69.0931 27.0885H60.6807L62.8938 16.6555H66.1466L64.4533 24.5408H69.6277ZM81.1426 16.6555L80.6669 18.8981H75.3715L75.0221 20.5577H80.126L79.6566 22.6708H74.5601L74.1181 24.7113H79.8629L79.3504 27.0896H70.3886L72.6164 16.6566H81.1426V16.6555ZM93.7529 16.6555H89.5119L85.5761 20.5903L85.5466 20.5566L86.3948 16.6555H83.142L80.9142 27.0885H84.167L84.7016 24.5261L86.9778 22.5708L88.9426 27.0896H92.429L89.2351 20.5913L93.7539 16.6566L93.7529 16.6555ZM104.436 16.6555L103.902 19.218H100.515L98.8125 27.0885H95.5745L97.2698 19.218H94.0317L94.5705 16.6555H104.435H104.436ZM105.809 16.6555L103.595 27.0885H106.834L107.723 22.8476H107.895C108.17 22.8476 108.406 22.9181 108.599 23.0612C108.794 23.2022 109.082 23.7221 109.472 24.6155C109.858 25.509 110.194 26.3329 110.478 27.0885H113.886C112.975 24.6986 112.193 23.2359 111.54 22.7034C112.645 22.534 113.45 22.1425 113.952 21.5321C114.455 20.9228 114.705 20.2104 114.705 19.3948C114.705 18.6392 114.469 17.9952 113.994 17.4585C113.52 16.9218 112.77 16.6545 111.747 16.6545H105.81L105.809 16.6555ZM108.143 20.8965L108.592 18.7687H110.229C110.818 18.7687 111.199 18.8444 111.373 18.997C111.551 19.1475 111.639 19.3569 111.639 19.6232C111.639 19.8326 111.563 20.0483 111.418 20.2746C111.269 20.5008 111.046 20.6608 110.745 20.7555C110.444 20.8502 109.781 20.8965 108.755 20.8965H108.143ZM121.664 16.4777C123.253 16.4777 124.421 16.9028 125.168 17.7552C125.911 18.6055 126.283 19.6526 126.283 20.8965C126.283 21.3753 126.215 21.9236 126.079 22.5361C125.94 23.1506 125.676 23.7873 125.279 24.445C124.886 25.1006 124.375 25.6594 123.746 26.1162C123.117 26.575 122.515 26.8812 121.934 27.0349C121.356 27.1906 120.741 27.2653 120.092 27.2653C118.601 27.2653 117.439 26.8886 116.604 26.133C115.768 25.3795 115.35 24.3209 115.35 22.9602C115.35 22.2488 115.454 21.5532 115.661 20.8786C115.867 20.203 116.175 19.5642 116.586 18.9644C116.996 18.3646 117.501 17.8615 118.101 17.4564C118.701 17.0512 119.291 16.786 119.872 16.6619C120.455 16.5377 121.051 16.4777 121.662 16.4777H121.664ZM120.292 24.8902C120.914 24.8902 121.441 24.6544 121.876 24.1862C122.308 23.7147 122.626 23.1243 122.825 22.4108C123.024 21.6963 123.124 21.1859 123.124 20.8828C123.124 20.2146 122.953 19.7095 122.614 19.3674C122.276 19.0275 121.841 18.8549 121.316 18.8549C120.726 18.8549 120.221 19.0707 119.795 19.499C119.37 19.9294 119.051 20.5019 118.838 21.2164C118.624 21.9278 118.517 22.5382 118.517 23.0412C118.517 23.5737 118.675 24.0125 118.988 24.3651C119.299 24.7144 119.734 24.8923 120.29 24.8923L120.292 24.8902Z" fill="#333333"/>
<path fill-rule="evenodd" clip-rule="evenodd" d="M37.3427 23.2685C37.0101 22.2624 36.585 21.369 36.0683 20.5861C35.4863 19.7052 34.7865 18.9612 33.9699 18.354C33.1585 17.7521 32.2377 17.3006 31.2106 16.9986C30.1783 16.6955 29.0333 16.544 27.7789 16.544C26.6981 16.544 25.6774 16.7081 24.7166 17.0354C23.7547 17.3627 22.8476 17.8542 21.9941 18.5077C21.1354 19.1612 20.4198 19.9168 19.8453 20.7734C19.3412 21.5258 18.9455 22.3572 18.655 23.2685H37.3437H37.3427ZM36.5829 20.2451C37.2016 21.1817 37.6941 22.2624 38.0593 23.4895L38.1772 23.8862H17.8353L17.9447 23.4947C18.2604 22.3656 18.7224 21.3437 19.3338 20.4303C19.9463 19.5158 20.7082 18.7108 21.6206 18.0162C22.5277 17.3217 23.4927 16.7986 24.5198 16.4493C25.5469 16.0999 26.6329 15.9241 27.78 15.9241C29.0891 15.9241 30.2919 16.0852 31.3853 16.4061C32.4819 16.7281 33.4669 17.2122 34.3372 17.8573C35.2138 18.5087 35.963 19.3032 36.5839 20.244L36.5829 20.2451ZM18.2993 30.516C18.453 31.6336 18.7571 32.6428 19.2086 33.5394C19.7042 34.5223 20.3809 35.3737 21.2354 36.0882C22.0899 36.8091 23.0718 37.35 24.1809 37.7109C25.2954 38.074 26.5403 38.255 27.9126 38.255C29.7247 38.255 31.359 37.8772 32.806 37.1216C33.5279 36.7386 34.174 36.2829 34.7455 35.7525C35.3158 35.2221 35.8115 34.617 36.2303 33.9351L36.3208 33.7867H45.9593L45.7951 34.2077C45.0227 36.1871 44.0588 37.9498 42.9012 39.4947C41.7425 41.0416 40.3913 42.3676 38.8444 43.4726C37.3027 44.5723 35.6379 45.3973 33.851 45.9477C32.0641 46.4981 30.1593 46.7727 28.1357 46.7727C26.7802 46.7727 25.4764 46.6538 24.2251 46.4139C22.9749 46.175 21.7763 45.814 20.6282 45.3321C19.4822 44.8501 18.3972 44.2523 17.3701 43.5399C16.343 42.8275 15.3749 42.0003 14.4646 41.0627C13.6027 40.1671 12.8377 39.2011 12.1694 38.1645C11.5022 37.129 10.9297 36.023 10.4541 34.8454C9.97842 33.6668 9.62168 32.4755 9.38385 31.2706C9.14602 30.0625 9.0271 28.8396 9.0271 27.6C9.0271 26.3603 9.1376 25.0975 9.35754 23.8989C9.57643 22.7034 9.90581 21.5447 10.3415 20.424C10.7772 19.2969 11.3191 18.2288 11.9642 17.2175C12.6093 16.2062 13.3565 15.2549 14.2036 14.3625C15.1307 13.3796 16.121 12.5082 17.1733 11.7505C18.2246 10.9928 19.337 10.3509 20.5082 9.82473C21.6816 9.29119 22.8718 8.8913 24.081 8.62505C25.2922 8.35775 26.5235 8.22516 27.7768 8.22516C29.3553 8.22516 30.8865 8.40406 32.3672 8.76396C33.8415 9.12176 35.2643 9.65951 36.6334 10.3783C38.0025 11.097 39.2695 11.9621 40.4334 12.9702C41.5994 13.9815 42.6633 15.1391 43.6252 16.4398C44.2166 17.2301 44.7281 18.0657 45.1606 18.9454C45.5941 19.8252 45.9519 20.7534 46.2361 21.73C46.5191 22.7034 46.7317 23.7473 46.8727 24.8618C47.0148 25.9793 47.0853 27.1632 47.0853 28.4124C47.0853 28.4934 47.0822 28.6207 47.0758 28.7933L47.0253 29.8446C47.0211 29.9709 47.018 30.0898 47.018 30.2056V30.515H18.2993V30.516ZM18.6593 33.8162C19.1938 34.8759 19.9221 35.7925 20.8408 36.5597C21.7574 37.3321 22.8087 37.9109 23.9905 38.296C25.1691 38.6802 26.4772 38.8717 27.9126 38.8717C29.8215 38.8717 31.5516 38.4697 33.0922 37.6657C33.8636 37.2574 34.5539 36.7701 35.1643 36.204C35.7336 35.6757 36.2324 35.0759 36.6618 34.4045H45.0501C44.3271 36.164 43.4463 37.7383 42.4076 39.1253C41.2879 40.6207 39.9809 41.9024 38.4855 42.9695C36.9975 44.0314 35.3906 44.828 33.6679 45.3584C31.9441 45.8887 30.0993 46.1539 28.1346 46.1539C26.815 46.1539 25.55 46.0392 24.3398 45.8077C23.1275 45.5762 21.9699 45.2289 20.866 44.7648C19.7611 44.2997 18.7129 43.722 17.7195 43.0327C16.7271 42.3444 15.7905 41.5436 14.9066 40.6333C14.0742 39.7672 13.3344 38.8327 12.6872 37.8309C12.04 36.827 11.4864 35.7546 11.0255 34.6149C10.5656 33.4752 10.2194 32.3208 9.99 31.1506C9.75953 29.9835 9.64483 28.7986 9.64483 27.5979C9.64483 26.3971 9.75112 25.1638 9.96369 24.0083C10.1763 22.8507 10.4941 21.7289 10.9161 20.645C11.3381 19.5548 11.8611 18.5224 12.483 17.5469C13.105 16.5724 13.8279 15.6516 14.653 14.7834C15.5548 13.8268 16.5156 12.9807 17.5332 12.2483C18.5498 11.5159 19.6264 10.895 20.7618 10.3856C21.8942 9.87103 23.0444 9.48482 24.2146 9.22805C25.3817 8.97127 26.5698 8.84289 27.7779 8.84289C29.3122 8.84289 30.796 9.01547 32.224 9.36275C33.65 9.70897 35.0264 10.2299 36.3492 10.9244C37.6731 11.619 38.9001 12.4577 40.0304 13.4374C41.1616 14.4193 42.1961 15.5432 43.1316 16.8092C43.6978 17.5669 44.1903 18.3698 44.6081 19.2191C45.0269 20.0694 45.3721 20.9628 45.6446 21.9025C45.9183 22.8455 46.1245 23.8589 46.2613 24.9407C46.3981 26.0204 46.4665 27.1769 46.4665 28.4134C46.4665 28.5239 46.4644 28.6439 46.4592 28.7733C46.4413 29.148 46.4202 29.5247 46.4065 29.8993H17.608L17.6448 30.2414C17.7879 31.5705 18.1268 32.7649 18.6593 33.8183V33.8162Z" fill="#333333" fill-opacity="0.8"/>
</svg>
