<?xml version="1.0" encoding="UTF-8"?>
<svg xmlns="http://www.w3.org/2000/svg" width="93.525" height="85.346" viewBox="0 0 93.525 85.346">
  <defs>
    <style>.a{fill:#1a1a1a;fill-rule:evenodd;}.b{fill:#fff;}</style>
  </defs>
  <g transform="translate(0 0)">
    <path class="a" d="M1.29,387.662v-6.606a3.047,3.047,0,0,0-.1-.915,1.06,1.06,0,0,0-.342-.464.989.989,0,0,0-.226-.123,1.872,1.872,0,0,0-.316-.087.6.6,0,0,1-.252-.078A.175.175,0,0,1,0,379.252a.239.239,0,0,1,.063-.178.4.4,0,0,1,.225-.054c.02,0,.089.006.208.015q1.225.081,2.589.082,1.654,0,3.3-.119c.2-.015.325-.022.364-.022a.327.327,0,0,1,.239.063.385.385,0,0,1,.056.243v.1a.148.148,0,0,1-.007.03.222.222,0,0,0-.007.074l-.1,1.251a.7.7,0,0,1-.05.249.15.15,0,0,1-.126.07.178.178,0,0,1-.15-.07.345.345,0,0,1-.05-.2.65.65,0,0,1,.007-.089.681.681,0,0,0,.007-.083.819.819,0,0,0-.4-.781,3.246,3.246,0,0,0-1.457-.225H3.647a2.227,2.227,0,0,0-.96.128.515.515,0,0,0-.213.483v3.142c0,.275.03.44.093.5a.681.681,0,0,0,.425.087H4.239a3.34,3.34,0,0,0,1.015-.113.969.969,0,0,0,.5-.379,1.575,1.575,0,0,0,.173-.414c.058-.191.135-.288.228-.288a.151.151,0,0,1,.13.089.517.517,0,0,1,.048.247c0,.026-.009.191-.03.5s-.028.613-.028.906a7.38,7.38,0,0,0,.058.887c.009.083.015.137.015.163a.387.387,0,0,1-.063.226.174.174,0,0,1-.145.093c-.124,0-.2-.123-.238-.364a2.14,2.14,0,0,0-.082-.382.765.765,0,0,0-.445-.449,2.878,2.878,0,0,0-1.015-.13H2.927a.528.528,0,0,0-.367.089.641.641,0,0,0-.085.408v3.113a.946.946,0,0,0,.249.768,1.756,1.756,0,0,0,1,.193,7.593,7.593,0,0,0,1.761-.2,4.432,4.432,0,0,0,1.37-.531,2.256,2.256,0,0,0,.551-.527c.169-.221.286-.33.343-.33a.1.1,0,0,1,.1.071.393.393,0,0,1,.037.191,1.638,1.638,0,0,1-.141.564,2.608,2.608,0,0,1-.34.613,2.21,2.21,0,0,1-.716.611,2.139,2.139,0,0,1-.932.178c-.1,0-.445-.015-1.043-.043s-1.136-.046-1.626-.046q-1.314,0-2.482.089c-.113.009-.184.015-.21.015a.157.157,0,0,1-.106-.056.169.169,0,0,1-.056-.122.234.234,0,0,1,.054-.16.646.646,0,0,1,.228-.145l.03-.015a1.092,1.092,0,0,0,.4-.262,1.084,1.084,0,0,0,.271-.466,3.345,3.345,0,0,0,.078-.874h0Zm8.213.351V384.8a.87.87,0,0,0-.161-.59.693.693,0,0,0-.536-.178.691.691,0,0,1-.306-.046.138.138,0,0,1-.085-.132.178.178,0,0,1,.063-.152.522.522,0,0,1,.264-.063.127.127,0,0,0,.045-.007c.1-.02.169-.039.215-.05a9.063,9.063,0,0,0,.9-.379,3.071,3.071,0,0,1,.5-.219.137.137,0,0,1,.132.067.656.656,0,0,1,.039.282v.9a4.775,4.775,0,0,1,1.154-.818,2.435,2.435,0,0,1,1.078-.269,2.219,2.219,0,0,1,1.008.239,2.078,2.078,0,0,1,.78.664,2.27,2.27,0,0,1,.377.874,8.608,8.608,0,0,1,.111,1.628v1.483a2.458,2.458,0,0,0,.093.843.8.8,0,0,0,.336.366.706.706,0,0,0,.2.078,1.069,1.069,0,0,0,.252.026.466.466,0,0,1,.249.05.209.209,0,0,1,.071.18.156.156,0,0,1-.063.13.256.256,0,0,1-.167.048c-.03,0-.195-.013-.5-.037s-.587-.035-.852-.035a8.779,8.779,0,0,0-1.11.067c-.05.006-.08.007-.091.007a.162.162,0,0,1-.117-.048.152.152,0,0,1-.052-.115c0-.082.065-.165.2-.26a1.135,1.135,0,0,0,.273-.234.915.915,0,0,0,.167-.369,3.593,3.593,0,0,0,.048-.713V386.3a3.511,3.511,0,0,0-.39-1.938,1.474,1.474,0,0,0-1.3-.551,1.9,1.9,0,0,0-1.294.408,1.457,1.457,0,0,0-.462,1.147v2.66a2.322,2.322,0,0,0,.1.843.8.8,0,0,0,.393.38.687.687,0,0,0,.195.067,1.277,1.277,0,0,0,.251.022.635.635,0,0,1,.3.067.2.2,0,0,1,.065.165.157.157,0,0,1-.065.13.292.292,0,0,1-.18.048c-.033,0-.21-.013-.529-.037s-.62-.035-.9-.035a9.875,9.875,0,0,0-1.164.067c-.058.006-.1.007-.111.007a.2.2,0,0,1-.134-.048.152.152,0,0,1-.058-.115.2.2,0,0,1,.046-.132.523.523,0,0,1,.161-.115l.072-.046a1.125,1.125,0,0,0,.23-.2,1.012,1.012,0,0,0,.2-.393,3.022,3.022,0,0,0,.056-.687h0Zm8.257,0v-3.256a.75.75,0,0,0-.176-.548.732.732,0,0,0-.549-.182.722.722,0,0,1-.3-.041.143.143,0,0,1-.084-.137.158.158,0,0,1,.063-.137.832.832,0,0,1,.3-.093.953.953,0,0,1,.119-.032,3.659,3.659,0,0,0,.577-.186c.148-.063.332-.156.549-.269a1.358,1.358,0,0,1,.408-.171.126.126,0,0,1,.124.065.852.852,0,0,1,.033.3v1.008a6.537,6.537,0,0,1,.917-.96.968.968,0,0,1,1.277.013.658.658,0,0,1,.312.475.643.643,0,0,1-.191.4c-.13.15-.238.225-.327.225a1.288,1.288,0,0,1-.377-.186,1.185,1.185,0,0,0-.609-.186.917.917,0,0,0-.7.362,1.2,1.2,0,0,0-.312.8V387.8a3.128,3.128,0,0,0,.111,1.03.847.847,0,0,0,.416.425.778.778,0,0,0,.195.067,1.245,1.245,0,0,0,.251.022.617.617,0,0,1,.3.067.2.2,0,0,1,.065.165.155.155,0,0,1-.072.126.328.328,0,0,1-.187.05c-.033,0-.212-.013-.531-.037s-.625-.035-.906-.035a10.2,10.2,0,0,0-1.186.067c-.058.006-.1.007-.111.007a.169.169,0,0,1-.124-.048.154.154,0,0,1-.054-.115.181.181,0,0,1,.037-.109.678.678,0,0,1,.169-.137,1.245,1.245,0,0,0,.2-.128.625.625,0,0,0,.113-.119,1.144,1.144,0,0,0,.206-.427,2.721,2.721,0,0,0,.063-.653h0Zm5.039-7.188a.9.9,0,0,1,.256-.522c.169-.2.306-.3.41-.3s.228.1.4.3a.843.843,0,0,1,.256.488.873.873,0,0,1-.247.486c-.161.2-.308.3-.434.3a.6.6,0,0,1-.416-.256.765.765,0,0,1-.223-.488h0Zm.074,7.19v-2.751a2.236,2.236,0,0,0-.137-1,.553.553,0,0,0-.516-.223A.807.807,0,0,1,21.9,384a.143.143,0,0,1-.1-.132c0-.1.121-.184.364-.247h.013a3.092,3.092,0,0,0,.34-.082,3.126,3.126,0,0,0,.343-.135,5.505,5.505,0,0,0,.542-.264,1.282,1.282,0,0,1,.431-.176.162.162,0,0,1,.134.046.34.34,0,0,1,.035.2c0,.02,0,.1-.006.23-.026.746-.037,1.5-.037,2.264v2.324a2.24,2.24,0,0,0,.106.832.873.873,0,0,0,.4.392.757.757,0,0,0,.2.067,1.219,1.219,0,0,0,.247.022.633.633,0,0,1,.3.067.2.2,0,0,1,.065.165.157.157,0,0,1-.074.126.328.328,0,0,1-.187.05c-.033,0-.212-.013-.531-.037s-.625-.035-.906-.035a10.21,10.21,0,0,0-1.186.067c-.058.006-.1.007-.111.007a.169.169,0,0,1-.124-.048.151.151,0,0,1-.052-.115.206.206,0,0,1,.045-.132.524.524,0,0,1,.161-.115l.072-.046a1.49,1.49,0,0,0,.238-.2,1.11,1.11,0,0,0,.2-.393,3.015,3.015,0,0,0,.056-.685h0Zm8.094-3.318a.538.538,0,0,1-.026.206.081.081,0,0,1-.078.056c-.05,0-.134-.083-.252-.249a2.566,2.566,0,0,0-.325-.392,2.342,2.342,0,0,0-.748-.481,2.3,2.3,0,0,0-.876-.174,1.505,1.505,0,0,0-1.3.644,2.992,2.992,0,0,0-.468,1.786,3.286,3.286,0,0,0,.689,2.179,2.271,2.271,0,0,0,1.832.824,2.793,2.793,0,0,0,1.515-.438q.7-.434.731-.434a.046.046,0,0,1,.043.026.132.132,0,0,1,.015.07.6.6,0,0,1-.161.314,3.122,3.122,0,0,1-.445.432,3.606,3.606,0,0,1-1.086.64,3.656,3.656,0,0,1-1.251.2,2.758,2.758,0,0,1-2.131-.922,3.323,3.323,0,0,1-.843-2.331,3.478,3.478,0,0,1,.965-2.5,3.145,3.145,0,0,1,2.37-1.012,4.929,4.929,0,0,1,.865.074,2.645,2.645,0,0,1,.655.2.653.653,0,0,1,.241.2.741.741,0,0,1,.063.368v.715h0Zm2.363,3.315V380.7a2.327,2.327,0,0,0-.135-.995.537.537,0,0,0-.5-.226h-.119a.348.348,0,0,1-.21-.054.148.148,0,0,1-.078-.132.165.165,0,0,1,.071-.143,1.006,1.006,0,0,1,.343-.1l.1-.022a4.736,4.736,0,0,0,.535-.171,3.924,3.924,0,0,0,.564-.291,1.128,1.128,0,0,1,.392-.186.189.189,0,0,1,.156.082.4.4,0,0,1,.058.225c0,.015-.006.074-.015.178-.058.713-.089,1.466-.089,2.266v3.1a4.8,4.8,0,0,1,1.153-.818,2.435,2.435,0,0,1,1.078-.269,2.219,2.219,0,0,1,1.008.239,2.078,2.078,0,0,1,.78.664,2.343,2.343,0,0,1,.39.9,8.26,8.26,0,0,1,.113,1.6v1.483a2.612,2.612,0,0,0,.089.857.776.776,0,0,0,.327.351.7.7,0,0,0,.2.078,1.03,1.03,0,0,0,.256.026.509.509,0,0,1,.26.05.21.21,0,0,1,.072.18.156.156,0,0,1-.063.13.259.259,0,0,1-.167.048c-.03,0-.195-.013-.5-.037s-.587-.035-.852-.035a9.047,9.047,0,0,0-1.121.067.764.764,0,0,1-.082.007.176.176,0,0,1-.121-.048.18.18,0,0,1-.063-.115c0-.076.069-.16.208-.254a1.164,1.164,0,0,0,.28-.239.961.961,0,0,0,.16-.369,3.594,3.594,0,0,0,.048-.713V386.3a3.522,3.522,0,0,0-.39-1.934,1.486,1.486,0,0,0-1.308-.555,1.9,1.9,0,0,0-1.294.408,1.457,1.457,0,0,0-.462,1.147v2.66a2.254,2.254,0,0,0,.106.832.864.864,0,0,0,.4.392.682.682,0,0,0,.191.067,1.3,1.3,0,0,0,.252.022.632.632,0,0,1,.3.067.2.2,0,0,1,.065.165.157.157,0,0,1-.065.13.3.3,0,0,1-.18.048c-.033,0-.213-.013-.536-.037s-.627-.035-.909-.035a9.9,9.9,0,0,0-1.164.067c-.058.006-.1.007-.111.007a.169.169,0,0,1-.124-.048.154.154,0,0,1-.054-.115.206.206,0,0,1,.045-.132.523.523,0,0,1,.161-.115l.089-.067a1.143,1.143,0,0,0,.2-.18,1.088,1.088,0,0,0,.2-.393,3,3,0,0,0,.058-.687h0Zm8.17-7.188a.9.9,0,0,1,.256-.522c.169-.2.306-.3.41-.3s.228.1.4.3a.843.843,0,0,1,.256.488.873.873,0,0,1-.247.486c-.161.2-.308.3-.434.3a.6.6,0,0,1-.416-.256.764.764,0,0,1-.223-.488h0Zm.074,7.19v-2.751a2.236,2.236,0,0,0-.137-1,.553.553,0,0,0-.516-.223A.809.809,0,0,1,40.6,384a.143.143,0,0,1-.1-.132c0-.1.121-.184.364-.247h.013a3.128,3.128,0,0,0,.34-.082,3.29,3.29,0,0,0,.345-.136,5.912,5.912,0,0,0,.542-.264,1.281,1.281,0,0,1,.431-.176.162.162,0,0,1,.134.046.356.356,0,0,1,.035.2c0,.02,0,.1-.006.23-.026.746-.039,1.5-.039,2.264v2.324a2.24,2.24,0,0,0,.106.832.874.874,0,0,0,.4.392.759.759,0,0,0,.2.067,1.219,1.219,0,0,0,.247.022.632.632,0,0,1,.3.067.2.2,0,0,1,.065.165.157.157,0,0,1-.074.126.328.328,0,0,1-.187.05c-.033,0-.212-.013-.531-.037s-.625-.035-.906-.035a10.22,10.22,0,0,0-1.186.067c-.058.006-.1.007-.111.007a.169.169,0,0,1-.124-.048.152.152,0,0,1-.052-.115.206.206,0,0,1,.045-.132.524.524,0,0,1,.161-.115l.072-.046a1.49,1.49,0,0,0,.238-.2,1.11,1.11,0,0,0,.2-.394,3.013,3.013,0,0,0,.056-.685h0Zm3.779,0v-3.216a.861.861,0,0,0-.161-.59.7.7,0,0,0-.536-.178.692.692,0,0,1-.306-.046.138.138,0,0,1-.085-.132.178.178,0,0,1,.063-.152.528.528,0,0,1,.264-.063.124.124,0,0,0,.045-.007c.1-.02.169-.039.215-.05a8.842,8.842,0,0,0,.9-.379,3.071,3.071,0,0,1,.5-.219.135.135,0,0,1,.132.067.664.664,0,0,1,.037.282v.9a4.813,4.813,0,0,1,1.154-.819,2.43,2.43,0,0,1,1.078-.269,2.219,2.219,0,0,1,1.008.239,2.078,2.078,0,0,1,.78.664,2.27,2.27,0,0,1,.377.874,8.609,8.609,0,0,1,.111,1.628v1.483a2.4,2.4,0,0,0,.095.843.8.8,0,0,0,.336.366.715.715,0,0,0,.2.078,1.072,1.072,0,0,0,.254.026.454.454,0,0,1,.247.05.209.209,0,0,1,.071.18.156.156,0,0,1-.063.13.256.256,0,0,1-.167.048c-.03,0-.195-.013-.5-.037s-.587-.035-.854-.035a8.785,8.785,0,0,0-1.11.067c-.05.006-.082.007-.091.007a.161.161,0,0,1-.117-.048.154.154,0,0,1-.054-.115c0-.082.065-.165.2-.26a1.174,1.174,0,0,0,.273-.234.915.915,0,0,0,.167-.369,3.594,3.594,0,0,0,.048-.713V386.3a3.494,3.494,0,0,0-.39-1.938,1.474,1.474,0,0,0-1.3-.551,1.9,1.9,0,0,0-1.294.408,1.457,1.457,0,0,0-.462,1.147v2.66a2.321,2.321,0,0,0,.1.843.805.805,0,0,0,.392.38.687.687,0,0,0,.195.067,1.258,1.258,0,0,0,.251.022.635.635,0,0,1,.3.067.2.2,0,0,1,.065.165.157.157,0,0,1-.065.13.292.292,0,0,1-.18.048c-.033,0-.21-.013-.529-.037s-.62-.035-.9-.035a9.9,9.9,0,0,0-1.164.067c-.058.006-.1.007-.111.007a.2.2,0,0,1-.134-.048.151.151,0,0,1-.058-.115.206.206,0,0,1,.045-.132.525.525,0,0,1,.161-.115l.072-.046a1.121,1.121,0,0,0,.23-.2,1.012,1.012,0,0,0,.2-.393,3.023,3.023,0,0,0,.056-.687h0Zm8.658,1.923a.967.967,0,0,0-.518.41,1.416,1.416,0,0,0-.161.729,1.006,1.006,0,0,0,.46.9,2.554,2.554,0,0,0,1.385.3,3.687,3.687,0,0,0,1.837-.386,1.185,1.185,0,0,0,.668-1.06.633.633,0,0,0-.193-.522,1.33,1.33,0,0,0-.718-.186l-.75-.022a11.753,11.753,0,0,1-2.008-.171h0ZM54,385.13a2.752,2.752,0,0,0,.39,1.594,1.283,1.283,0,0,0,1.123.551,1.32,1.32,0,0,0,1.086-.447,1.951,1.951,0,0,0,.375-1.29,2.733,2.733,0,0,0-.406-1.583,1.275,1.275,0,0,0-1.1-.585,1.32,1.32,0,0,0-1.075.471,1.947,1.947,0,0,0-.392,1.29h0Zm-.332,4.618a.909.909,0,0,1-.4-.384,1.154,1.154,0,0,1-.145-.577,1.478,1.478,0,0,1,.208-.724,2.878,2.878,0,0,1,.592-.735,2.035,2.035,0,0,1-.7-.789,2.5,2.5,0,0,1-.239-1.119,2.277,2.277,0,0,1,.7-1.7,2.386,2.386,0,0,1,1.726-.687,3.18,3.18,0,0,1,1.357.3,4.038,4.038,0,0,0,.741.306.746.746,0,0,0,.4-.122.966.966,0,0,0,.314-.317,1.2,1.2,0,0,0,.071-.152.642.642,0,0,0,.033-.137l.007-.015c.03-.124.084-.186.163-.186a.159.159,0,0,1,.139.082.414.414,0,0,1,.054.225,1.81,1.81,0,0,1-.208.919,1.421,1.421,0,0,1-.65.566,1.8,1.8,0,0,1,.161.757A2.232,2.232,0,0,1,57.266,387a2.751,2.751,0,0,1-1.921.651,3.341,3.341,0,0,1-.607-.056c-.212-.035-.329-.056-.345-.056a.6.6,0,0,0-.458.256.887.887,0,0,0-.21.57.593.593,0,0,0,.453.585,10.2,10.2,0,0,0,2.4.16,2.371,2.371,0,0,1,1.405.321,1.259,1.259,0,0,1,.418,1.065,1.811,1.811,0,0,1-.856,1.591,4.237,4.237,0,0,1-2.383.575,3.7,3.7,0,0,1-1.891-.419,1.272,1.272,0,0,1-.7-1.121,1.2,1.2,0,0,1,.264-.77,2.267,2.267,0,0,1,.835-.6Z" transform="translate(0 -307.314)"></path>
    <path class="a" d="M341.584,390.48v-6.606a2.838,2.838,0,0,0-.1-.93,1.1,1.1,0,0,0-.345-.447,1.08,1.08,0,0,0-.239-.143,1.121,1.121,0,0,0-.293-.067.166.166,0,0,0-.035-.015c-.154-.041-.23-.108-.23-.2s.017-.15.056-.178a.418.418,0,0,1,.232-.054c.05,0,.236.015.557.048a8.535,8.535,0,0,0,.883.048,12.322,12.322,0,0,0,1.407-.082c.091-.009.141-.015.156-.015a.219.219,0,0,1,.16.054.189.189,0,0,1,.056.147c0,.109-.106.2-.319.269l-.015.007-.1.037a.983.983,0,0,0-.319.178.913.913,0,0,0-.271.432,3.5,3.5,0,0,0-.078.908v7.09a.946.946,0,0,0,.245.761,1.545,1.545,0,0,0,.941.2,7.851,7.851,0,0,0,1.8-.2,4.585,4.585,0,0,0,1.377-.516,2.609,2.609,0,0,0,.572-.536c.176-.223.3-.336.355-.336a.106.106,0,0,1,.1.071.394.394,0,0,1,.037.191,1.727,1.727,0,0,1-.145.577,2.732,2.732,0,0,1-.367.659,1.9,1.9,0,0,1-.7.57,2.423,2.423,0,0,1-.989.174q-.187,0-1.123-.046c-.624-.028-1.186-.043-1.68-.043q-1.236,0-2.32.082c-.093.006-.152.007-.169.007a.138.138,0,0,1-.108-.056.184.184,0,0,1-.048-.122.233.233,0,0,1,.056-.16.8.8,0,0,1,.239-.152.139.139,0,0,1,.037-.015,1.151,1.151,0,0,0,.362-.254,1.173,1.173,0,0,0,.286-.483,3.128,3.128,0,0,0,.085-.857h0Zm7.9-6.838a.9.9,0,0,1,.256-.522c.171-.2.306-.3.41-.3s.228.1.4.3a.843.843,0,0,1,.256.488.88.88,0,0,1-.245.486c-.161.2-.31.3-.436.3a.6.6,0,0,1-.416-.256.765.765,0,0,1-.223-.488h0Zm.074,7.19v-2.751a2.274,2.274,0,0,0-.135-1,.553.553,0,0,0-.516-.223.808.808,0,0,1-.319-.046.143.143,0,0,1-.1-.132c0-.1.121-.184.364-.247h.013a3.121,3.121,0,0,0,.34-.082,3.292,3.292,0,0,0,.345-.136,5.912,5.912,0,0,0,.542-.264,1.281,1.281,0,0,1,.431-.176.162.162,0,0,1,.134.046.341.341,0,0,1,.035.2c0,.02,0,.1-.006.23-.024.746-.037,1.5-.037,2.264v2.324a2.24,2.24,0,0,0,.106.831.873.873,0,0,0,.4.392.765.765,0,0,0,.2.067,1.221,1.221,0,0,0,.247.022.631.631,0,0,1,.3.067.2.2,0,0,1,.065.165.159.159,0,0,1-.072.126.328.328,0,0,1-.187.05c-.033,0-.213-.013-.531-.037s-.626-.035-.906-.035a10.22,10.22,0,0,0-1.186.067c-.058.006-.1.007-.111.007a.169.169,0,0,1-.124-.048.152.152,0,0,1-.052-.115.206.206,0,0,1,.045-.132.524.524,0,0,1,.161-.115l.074-.046a1.487,1.487,0,0,0,.238-.2,1.075,1.075,0,0,0,.2-.394,3.012,3.012,0,0,0,.056-.685h0Zm5.72,1.576-2.06-4.956a2.872,2.872,0,0,0-.308-.572,1.014,1.014,0,0,0-.336-.3,1.264,1.264,0,0,0-.186-.076c-.145-.043-.215-.113-.215-.2a.158.158,0,0,1,.065-.13.309.309,0,0,1,.188-.048,2.664,2.664,0,0,1,.284.028,2.56,2.56,0,0,0,.353.032c.3,0,.644-.009,1.026-.032s.614-.028.692-.028a.392.392,0,0,1,.21.033.147.147,0,0,1,.048.13c0,.109-.134.186-.408.223a.273.273,0,0,1-.043.007.519.519,0,0,0-.275.143.361.361,0,0,0-.1.254.505.505,0,0,0,.013.1c.007.033.018.076.033.124l1.563,3.875a.408.408,0,0,0,.045.074.083.083,0,0,0,.043.022.092.092,0,0,0,.056-.026.2.2,0,0,0,.056-.071l1.149-2.506a5.27,5.27,0,0,0,.291-.77,2.564,2.564,0,0,0,.1-.659.581.581,0,0,0-.1-.379.7.7,0,0,0-.39-.187l-.126-.022c-.2-.022-.3-.089-.3-.193a.166.166,0,0,1,.054-.137.269.269,0,0,1,.169-.041c.061,0,.2.009.438.028s.438.032.614.032a5.18,5.18,0,0,0,.549-.032c.208-.019.34-.028.392-.028a.273.273,0,0,1,.182.054.2.2,0,0,1,.063.163c-.006.084-.063.141-.176.163a1.307,1.307,0,0,0-.156.045.52.52,0,0,0-.223.158,2.319,2.319,0,0,0-.251.425l-2.478,5.28a.737.737,0,0,1-.134.219.192.192,0,0,1-.139.056c-.111,0-.195-.074-.252-.223a.323.323,0,0,0-.022-.059h0Zm5.679-4.141h2.082a3.823,3.823,0,0,0,.943-.067.253.253,0,0,0,.189-.254,1.517,1.517,0,0,0-.5-1.119,1.62,1.62,0,0,0-1.171-.483,1.3,1.3,0,0,0-1.05.51,2.633,2.633,0,0,0-.5,1.411h0Zm-.03.394a3.827,3.827,0,0,0,.668,2.366,2.134,2.134,0,0,0,1.791.882,3.022,3.022,0,0,0,1.721-.6.931.931,0,0,1,.3-.158c.046,0,.074.006.085.019a.13.13,0,0,1,.019.087.4.4,0,0,1-.078.208,1.534,1.534,0,0,1-.256.282,3.686,3.686,0,0,1-1.134.737,3.414,3.414,0,0,1-1.29.238,2.669,2.669,0,0,1-2.057-.935,3.309,3.309,0,0,1-.841-2.288A3.81,3.81,0,0,1,360.71,387a2.528,2.528,0,0,1,2.016-1.049,2.657,2.657,0,0,1,1.206.267,2.714,2.714,0,0,1,.941.806,2.685,2.685,0,0,1,.406.683,1.792,1.792,0,0,1,.141.657.3.3,0,0,1-.072.232.958.958,0,0,1-.438.058h-3.979Zm5.739,3.189-.015-1.266a.452.452,0,0,1,.048-.241.16.16,0,0,1,.145-.08c.093,0,.161.115.2.343a3.661,3.661,0,0,0,.1.432,1.928,1.928,0,0,0,.585.909,1.407,1.407,0,0,0,.919.31,1.3,1.3,0,0,0,.939-.353,1.208,1.208,0,0,0,.367-.913c0-.453-.458-.889-1.372-1.318-.173-.082-.306-.145-.4-.193a2.919,2.919,0,0,1-1.067-.75,1.509,1.509,0,0,1-.319-.971,1.635,1.635,0,0,1,.542-1.292,2.127,2.127,0,0,1,1.468-.481,3.367,3.367,0,0,1,1.123.147c.264.1.4.24.4.418l.015.857a.491.491,0,0,1-.03.2.109.109,0,0,1-.1.058c-.078,0-.139-.078-.186-.234a1.244,1.244,0,0,0-.134-.334,1.739,1.739,0,0,0-.6-.548,1.49,1.49,0,0,0-.733-.2,1.116,1.116,0,0,0-.759.247.814.814,0,0,0-.286.648c0,.481.583.971,1.743,1.474.084.033.147.061.193.082a2.235,2.235,0,0,1,.935.7,1.717,1.717,0,0,1,.3,1.03,2.1,2.1,0,0,1-2.173,2.168,2.856,2.856,0,0,1-1.245-.343,1.842,1.842,0,0,0-.245-.1l-.1-.022c-.173-.033-.258-.163-.258-.386Z" transform="translate(-277.172 -310.132)"></path>
    <rect class="b" width="48.319" height="62.865" transform="translate(22.312)"></rect>
    <g transform="translate(23.15 0.838)">
      <path class="a" d="M146.957,32.362a7.847,7.847,0,0,1,.466-2.864c.223-.182-.445,2.793-.466,2.864h0Zm5.123-.546a.146.146,0,1,1-.071-.284.146.146,0,1,1,.071.284Zm6.773-1.448c.041-.627-.2-.3-.891-.05.182-.293,1.052-.911,1.316-.577a.521.521,0,0,1-.425.627Zm4.423-.173c-.728-.191.182-2.166.82-1.852.284.234-.234.4.152.568a.508.508,0,0,0,.577-.111c-.091.577-.8,1.6-1.55,1.4h0Zm-4.859-2.3c.466-3.391,1.325-2.834,0,0Zm-19.475,4.777.193-1.507,1.579-.325-.213,1.507-1.559.325ZM173.084,28.4V0H126.47V42.594l.768-2.925c3.3-.234,3.3-6.327,3.989-9.182a4.661,4.661,0,0,1-3.046,1.448l.668-3.046c1.2.689,2.4-.243,2.975-1.114h1.043l-.952,6.216c3.786-.366,4.182-7.532,9.616-9.5,1.457-.525,3.775.293,3.2,2.459-.141.466-1.568,1.489-1.618.375s-1.527-1.266-4.534,1.548c-1.307,1.528-2.784,3.846-4.182,5.2.9.354,1.2,4.343,2.975,4.08a1.169,1.169,0,0,0,1.032-.668l.375-3.189-.314-.366,2.084-.618c-.3,2.611-.809,4.241-.375,4.241.809,0,1.407-3.573,1.275-4.768l1.721-.284-.03.273,1.457-.314.516,1.175c-.425.325-1.154,2.177-.618,2.177.566,0,1.245-.911,1.437-1.407-.02-2.43.152-5.618,1.884-7.682a.346.346,0,0,1,.525.03c.932,1.386-.637,6.043-1.2,6.994.132.791.546,1.832,1.811.264-.041-1.307.85-3.25,1.923-3.423.436-.061.425.293.091.527-.648.657-.882,2.459-.141,3.016.445.161,1.154-.78,1.023-1.437a1.054,1.054,0,0,1,.132-2.086c.486-.009.748.4.9.8,2.329-.627,1.973-2.45,2.611-2.975l1.539.061a2.221,2.221,0,0,0-.941,1.993l1-.466s1.1-7.35,2.166-7.218c.83.111.759,1.721.759,2.307A6.5,6.5,0,0,1,159,28.045c.7-.557,2.207-.557,2.218.323a3.611,3.611,0,0,1-2.075,2.9c.627.668,1.257,1.325,2.47.091a6.276,6.276,0,0,1,.425-2.418c1.1-2.257,2.348-2.368,3.066-1.852.091-.243.091-.314-.041-.709l1.8-.354c-.173,1.437-1.234,4.362-.607,4.2.759-.243,1.216-3.127,1.5-4.909L169.224,25c.009.08.02.223.02.325l1.691-.416.566.921c-.718.546-1.559,2.561-1.366,3,.475.648.648.009,1.154-.425.891-.759,1.641-.577,1.791,0Z" transform="translate(-126.47)"></path>
      <path class="a" d="M126.47,178.1v-17.7c3.927-1.012,4.291-2.9,5.364-8.25a2.746,2.746,0,0,0,1.7-.536c.911,1.114.729,3.046,1.468,4.373.85,2.034,2.571,1.418,3.684-.03.507.87,1.68.223,2.136-.284a10.442,10.442,0,0,0,2.1-4.777c.252-.091.516-.1.8-.182-.911,1.4-1.782,5.123.375,4.273a6.761,6.761,0,0,0,2.055-2.084c.677,2.389,2.571.323,3.087-.729a1.275,1.275,0,0,0,1.336.911c1.418-.223,2.3-1.732,2.379-3.857a11.08,11.08,0,0,0,1.609-.689c0,.6.173,1.509-.282,1.852-.689.436.009-.607-.679-.759-.475-.05-.87,1.357-.586,1.761a1.518,1.518,0,0,0,1.468.536c1.641-.3,2-2.318,1.741-3.645l.668-.243a32.64,32.64,0,0,0-.334,3.291l1.6-.648a2.121,2.121,0,0,1-.182-1.043,2.639,2.639,0,0,0,3.927-.507c.557.75,1.843.78,2.975-.5a.9.9,0,0,0,1.2.284c1.073-.587,2-2.752,2.379-5.111l.982-.254c-.607,1.366-1.316,3.127-.729,3.907.921.961,2.632,0,2.966-1.012.091-.293.325-.607.527-.566.677.121.041,1.012-1.032,1.791a20.186,20.186,0,0,1-3.786,1.811l-34.062,11.559-2.055,5.4,36.046-15.477c3.189-1.448,4.918-2.561,5.809-4.211V178.1Z" transform="translate(-126.47 -116.907)"></path>
    </g>
  </g>
</svg>
