<svg width="39" height="44" viewBox="0 0 39 44" fill="none" xmlns="http://www.w3.org/2000/svg">
<path fill-rule="evenodd" clip-rule="evenodd" d="M6.76842 3.7858C14.6862 -3.02649 26.3884 -0.394224 32.9058 9.66529C33.502 10.5854 34.0334 11.536 34.5022 12.5087C35.644 12.6455 36.7796 13.4291 37.5324 14.7477C38.7722 16.9198 38.5153 19.7393 36.9759 21.1353C37.791 28.476 35.5105 35.7917 30.3703 40.2142C22.4523 47.0265 10.7503 44.3942 4.23273 34.3348C-2.28471 24.2753 -1.14957 10.5982 6.76842 3.7858Z" fill="#1F1B20"/>
<path fill-rule="evenodd" clip-rule="evenodd" d="M23.6678 20.1831C23.2376 18.3642 23.5482 16.4592 24.5265 15.1723L20.0319 9.94824C17.5432 12.8835 16.7584 17.4886 17.8774 21.827L23.6678 20.1831Z" fill="#EB632A" stroke="#1F1B20" stroke-width="0.0762" stroke-miterlimit="22.9256"/>
<path fill-rule="evenodd" clip-rule="evenodd" d="M20.418 9.52229L24.9066 14.7394C24.9907 14.6559 25.0783 14.5762 25.1696 14.5006C26.1597 13.681 27.3756 13.5085 28.5217 13.8952L29.3656 7.82155C29.3464 7.79942 29.3272 7.77735 29.3081 7.7554C26.5588 6.57334 23.5546 6.85146 21.1484 8.8435C20.8922 9.05565 20.6487 9.28232 20.418 9.52229Z" fill="#EB632A" stroke="#1F1B20" stroke-width="0.0762" stroke-miterlimit="22.9256"/>
<path fill-rule="evenodd" clip-rule="evenodd" d="M23.8501 20.8207L18.123 22.6807C18.4457 23.6916 18.8747 24.6808 19.4125 25.6228C21.0915 28.5636 23.5064 30.476 26.0331 31.1741L26.8595 24.3385C25.9123 23.936 25.0316 23.1473 24.3902 22.0241C24.1697 21.6377 23.99 21.2337 23.8501 20.8207Z" fill="#EB632A" stroke="#1F1B20" stroke-width="0.0762" stroke-miterlimit="22.9256"/>
<path fill-rule="evenodd" clip-rule="evenodd" d="M27.5205 24.5542L26.7012 31.3299C28.9088 31.7498 31.1593 31.2408 33.0432 29.6811C33.721 29.1199 34.3104 28.4567 34.8088 27.7149L31.0266 23.319C30.8675 23.5102 30.6925 23.686 30.5019 23.8438C29.6179 24.5755 28.5539 24.7914 27.5205 24.5542Z" fill="#EB632A" stroke="#1F1B20" stroke-width="0.0762" stroke-miterlimit="22.9256"/>
<path fill-rule="evenodd" clip-rule="evenodd" d="M31.5078 23.0052L34.9479 27.0036L35.1263 27.2109C36.1325 25.5076 36.6976 23.4499 36.7958 21.2871C36.4426 21.5647 36.058 21.7492 35.6606 21.8454L35.0887 22.0052L31.5078 23.0052Z" fill="#EB632A" stroke="#1F1B20" stroke-width="0.0762" stroke-miterlimit="22.9256"/>
<path fill-rule="evenodd" clip-rule="evenodd" d="M32.6267 12.8181L33.021 12.7146C33.2795 12.605 33.5473 12.5356 33.8193 12.5051C34.0454 12.4797 34.2744 12.4813 34.5031 12.5087C34.4541 12.4068 34.4042 12.3052 34.3539 12.204C33.1193 10.2971 31.5605 8.88385 29.8807 8.02515L29.8313 8.38091L29.0859 13.7471L32.6267 12.8181Z" fill="#EB632A" stroke="#1F1B20" stroke-width="0.0762" stroke-miterlimit="22.9256"/>
<path fill-rule="evenodd" clip-rule="evenodd" d="M27.2179 32.3609C25.9783 33.3871 24.5906 33.9886 23.1562 34.1955L23.6266 41.1739C25.5431 40.7792 27.3904 39.9071 29.0598 38.5249C29.4304 38.218 29.7847 37.8923 30.1226 37.5491L27.4732 32.1416C27.3894 32.2162 27.3043 32.2893 27.2179 32.3609Z" fill="#EB632A" stroke="#1F1B20" stroke-width="0.0762" stroke-miterlimit="22.9256"/>
<path fill-rule="evenodd" clip-rule="evenodd" d="M23.0235 41.2819L22.5502 34.2593C20.8347 34.3743 19.0735 33.9395 17.4371 33.0054L14.8652 39.8157C17.4981 41.1772 20.3176 41.6958 23.0235 41.2819Z" fill="#EB632A" stroke="#1F1B20" stroke-width="0.0762" stroke-miterlimit="22.9256"/>
<path fill-rule="evenodd" clip-rule="evenodd" d="M14.338 39.5298L16.9209 32.6907C15.2789 31.6291 13.7858 30.0525 12.6224 28.015C12.6058 27.986 12.5894 27.9569 12.573 27.9277L7.08984 32.1024C9.03258 35.4516 11.5687 37.9632 14.338 39.5298Z" fill="#EB632A" stroke="#1F1B20" stroke-width="0.0762" stroke-miterlimit="22.9256"/>
<path fill-rule="evenodd" clip-rule="evenodd" d="M6.7877 31.5663L12.2805 27.3843C11.1877 25.2551 10.5918 22.9338 10.4682 20.66L3.73242 20.4078C3.87116 24.1826 4.8729 28.0633 6.7877 31.5663Z" fill="#EB632A" stroke="#1F1B20" stroke-width="0.0762" stroke-miterlimit="22.9256"/>
<path fill-rule="evenodd" clip-rule="evenodd" d="M3.71512 19.614L10.4445 19.9793C10.4157 17.7592 10.8395 15.6082 11.6926 13.7532L6.04062 9.52368C4.48827 12.4618 3.69798 15.9721 3.71512 19.614Z" fill="#EB632A" stroke="#1F1B20" stroke-width="0.0762" stroke-miterlimit="22.9256"/>
<path fill-rule="evenodd" clip-rule="evenodd" d="M15.5622 9.27738L12.3113 3.17651C11.4454 3.60737 10.6083 4.15078 9.8116 4.8104C8.45014 5.93747 7.30925 7.3192 6.39648 8.88276L12.0179 13.099C12.6524 11.9168 13.4748 10.8771 14.4783 10.0464C14.8285 9.75639 15.1907 9.50022 15.5622 9.27738Z" fill="#EB632A" stroke="#1F1B20" stroke-width="0.0762" stroke-miterlimit="22.9256"/>
<path fill-rule="evenodd" clip-rule="evenodd" d="M13.0391 2.84399L16.0864 8.98865C17.5426 8.25231 19.1234 7.99934 20.6994 8.19133L20.3074 2.18902C17.8523 1.67674 15.3577 1.87361 13.0391 2.84399Z" fill="#EB632A" stroke="#1F1B20" stroke-width="0.0762" stroke-miterlimit="22.9256"/>
<path fill-rule="evenodd" clip-rule="evenodd" d="M21.1102 8.13158C22.1332 7.59676 23.3732 7.076 25.1038 6.91531L26.348 4.99232C24.6023 3.68516 22.72 2.77838 20.8047 2.30286L21.1102 8.13158Z" fill="#EB632A" stroke="#1F1B20" stroke-width="0.0762" stroke-miterlimit="22.9256"/>
<path d="M25.1038 6.91531L26.348 4.99232C24.6023 3.68516 22.7201 2.77838 20.8047 2.30286L21.1102 8.13158" stroke="#1F1B20" stroke-width="0.0762" stroke-miterlimit="22.9256"/>
<path fill-rule="evenodd" clip-rule="evenodd" d="M27.877 31.8537C28.5685 31.7741 29.2806 31.6531 30.3815 31.3831C30.7297 31.2978 31.0873 31.1429 31.4423 30.9434L33.9837 31.1341C33.2042 33.4066 32.0415 35.4592 30.5114 37.1385L27.877 31.8537Z" fill="#EB632A" stroke="#1F1B20" stroke-width="0.0762" stroke-miterlimit="22.9256"/>
<path d="M31.4422 30.9434L33.9836 31.1341C33.2041 33.4066 32.0415 35.4592 30.5113 37.1385L27.877 31.8537" stroke="#1F1B20" stroke-width="0.0762" stroke-miterlimit="22.9256"/>
<path fill-rule="evenodd" clip-rule="evenodd" d="M36.8894 21.1871C38.518 19.7145 38.7743 16.8956 37.5347 14.724C36.7923 13.4236 35.6775 12.6432 34.5285 12.488C34.2767 12.4575 34.0476 12.456 33.8214 12.4814L33.0232 12.6909C32.9021 12.7423 32.783 12.8026 32.6664 12.8718C32.5288 12.9536 32.3948 13.048 32.2653 13.1553C31.5351 13.7598 31.0703 14.6708 30.8918 15.6921C30.669 16.9645 30.8904 18.4078 31.5949 19.6419C31.7646 19.9392 31.9537 20.2093 32.158 20.451C32.9821 21.4256 34.0525 21.9369 35.086 21.901C35.2801 21.8942 35.4729 21.868 35.6626 21.822C36.0613 21.7255 36.446 21.5409 36.8894 21.1871Z" fill="#EB632A" stroke="#1F1B20" stroke-width="0.0762" stroke-miterlimit="22.9256"/>
</svg>
