<svg width="2010" height="750" viewBox="0 0 2010 750" fill="none" xmlns="http://www.w3.org/2000/svg">
<path d="M231 1.05033H128L127 334.05C127.001 347.55 132.333 366.384 135.5 374.55C142.867 393.55 166.167 420.05 179 431.05C204.6 462.25 259.333 474.05 283.5 476.05H661V16.5503C661.4 1.75029 651.5 0.0503188 646.5 1.05033H633H521.5V384.55H321C277.4 384.95 268.167 367.384 269 358.55V337.05V15.0503C269.4 -0.549669 243.833 -0.783002 231 1.05033Z" fill="#EA6903"/>
<path d="M1275.5 94.5503V2.05029H741.5V341.05C745.5 439.85 847.5 471.884 898.001 475.55H1275.5V382.05H898.001C846.001 379.25 841.667 330.217 846.001 306.05H1275.5V178.05H846.001V94.5503H1275.5Z" fill="#EA6903"/>
<path d="M1527.5 0.0505329H1347.5V95.5503H1541V475.55H1693.5V95.5503H1882.5V0.0505329H1704.5C1680.5 0.0505329 1671.83 7.05037 1670.5 10.5503L1615.5 97.0503L1565.5 18.5505C1558.7 2.55053 1548.67 -0.449467 1544.5 0.0505329H1527.5Z" fill="#EA6903"/>
<path fill-rule="evenodd" clip-rule="evenodd" d="M1575 577.213H1614L1659.5 745.213H1620.5L1615.5 718.213H1573.5L1567.5 745.213H1530L1575 577.213ZM1594.5 622.213L1581.5 682.213H1608L1594.5 622.213Z" fill="#31375A"/>
<path d="M136.5 613.713V578.713H239V611.713L173.5 709.713H242V745.713H130V709.713L196 613.713H136.5Z" fill="#31375A"/>
<path d="M37.5 578.213H1L1.5 672.213C-0.5 707.413 12.1667 730.38 19.5 736.713C41.5 755.213 74.5 750.713 89 742.213C105.5 733.713 114.5 705.213 114.5 688.213L113.5 578.213H77.5V688.213C77.5 703.813 64.1667 708.38 57.5 708.713C42.3 708.713 37.8333 695.046 37.5 688.213V578.213Z" fill="#31375A"/>
<path fill-rule="evenodd" clip-rule="evenodd" d="M331.5 578.213H258.5V746.713L331.5 744.713C355.1 741.513 364 724.046 365.5 715.713L367.5 700.713C369.1 673.913 352.167 659.88 343.5 656.213C360.3 649.013 362.833 627.88 362 618.213C360.4 589.013 341 579.38 331.5 578.213ZM295 643.213V611.713L311 611.213C325 611.713 327 620.713 327 626.713C327 639.713 319.667 642.713 316 643.213H295ZM295 675.775V711.213H318.625C322.75 710.65 331 707.275 331 692.65C331 685.9 328.75 675.775 313 675.213L295 675.775Z" fill="#31375A"/>
<path d="M387.5 745.713V579.213H486V613.713H423.5V641.213H480.5V674.713H423.5V709.213H486V745.713H387.5Z" fill="#31375A"/>
<path d="M542.5 577.713H506.5L507 746.213H542.5V703.713L563 677.213L586.5 746.213H631.5L586.5 639.713L629.5 577.713H581.5L542.5 639.713V577.713Z" fill="#31375A"/>
<path d="M644 577.713H742.5V614.213H680.5V641.213H737V674.713H680.5V708.213H742.5V745.713H644V577.713Z" fill="#31375A"/>
<path d="M900 578.213H998.5V614.713H936.5V641.713H993V675.213H936.5V708.713H998.5V746.213H900V578.213Z" fill="#31375A"/>
<path d="M764.5 746.213H797V652.713L842.5 746.213H877V577.713H842.5V670.713L797 577.713H764.5V746.213Z" fill="#31375A"/>
<path fill-rule="evenodd" clip-rule="evenodd" d="M1021.5 577.713V746.713H1057V677.213C1062.33 676.38 1073.6 678.213 1076 692.213L1096.5 746.713H1138.5L1114.5 685.213C1112.17 682.046 1105.9 674.913 1099.5 671.713C1109.83 668.88 1130.1 655.013 1128.5 622.213C1127.79 607.713 1120 577.713 1088.5 577.713H1021.5ZM1058 612.213V646.713H1077.5C1082.17 646.546 1091.5 641.413 1091.5 628.213C1091 622.046 1090 612.213 1073.5 612.213H1058Z" fill="#31375A"/>
<path d="M1225.5 630.713L1260.5 622.713L1252.5 598.713C1246.1 579.513 1219.17 575.046 1206.5 575.213C1172.1 573.613 1153.5 603.213 1148.5 618.213C1136.5 645.013 1143.5 685.713 1148.5 702.713C1154.5 739.513 1188 748.713 1204 748.713C1226 751.913 1251.83 732.046 1262 721.713V650.213H1206.5V684.713H1231V700.213L1216.5 710.213C1192.5 719.013 1183.17 700.546 1181.5 690.213C1173.5 653.413 1180.84 630.879 1185.5 624.213C1206.7 599.413 1221 618.213 1225.5 630.713Z" fill="#31375A"/>
<path fill-rule="evenodd" clip-rule="evenodd" d="M1342 575.213C1318.67 575.213 1276 593.713 1280.5 665.213C1280.67 694.046 1292.6 751.113 1339 748.713C1360.5 750.213 1396.5 734.713 1400.5 686.213C1407.5 649.213 1399.6 575.213 1342 575.213ZM1340.5 614.213C1331.67 614.38 1314.4 624.113 1316 661.713C1315.83 678.046 1320.5 710.713 1340.5 710.713C1350.33 710.213 1366.5 700.713 1366.5 661.713C1366.83 645.88 1362.1 614.213 1340.5 614.213Z" fill="#31375A"/>
<path d="M1408.5 620.213H1446V746.713H1483.5V620.213H1521V577.713H1408.5V620.213Z" fill="#31375A"/>
<path d="M1670.5 745.713H1700V620.213L1723.5 745.713H1750.5L1774 620.213V745.713H1803.5V577.713H1755.5L1737 680.213L1718.5 577.713H1670.5V745.713Z" fill="#31375A"/>
<path fill-rule="evenodd" clip-rule="evenodd" d="M1828.5 577.713H1865.5V745.713H1828.5V577.713ZM1891.5 577.713H1959C1970 577.713 1993.6 583.013 1998 616.213V633.213C1997.33 643.046 1991.1 664.513 1971.5 671.713C1974.83 673.38 1982.8 680.013 1988 693.213L2008 745.713H1967L1946 693.213C1944.5 686.88 1938.9 674.913 1928.5 677.713V745.713H1891.5V577.713ZM1928.5 611.713V646.213H1947C1952.17 646.046 1962.4 641.313 1962 627.713C1961.75 619.213 1957.3 606.913 1928.5 611.713Z" fill="#31375A"/>
<path d="M19.5649 516.082C1.56486 516.082 -0.433859 522.079 0.0648618 526.582C0.565376 529.748 6.86641 535.879 28.0664 535.079L1988.56 534.582C2008.06 534.582 2009.17 533.081 2009.56 525.579C2010.06 516.082 2003.4 515.915 1999.56 516.082H19.5649Z" fill="#31375A"/>
</svg>
